<?xml version="1.0" standalone="no"?>
<!DOCTYPE svg PUBLIC "-//W3C//DTD SVG 1.1//EN" "http://www.w3.org/Graphics/SVG/1.1/DTD/svg11.dtd" >
<!--
2013-9-30: Created.
-->
<svg>
<metadata>
Created by iconfont
</metadata>
<defs>

<font id="iconfont" horiz-adv-x="1024" >
  <font-face
    font-family="iconfont"
    font-weight="500"
    font-stretch="normal"
    units-per-em="1024"
    ascent="896"
    descent="-128"
  />
    <missing-glyph />
    
    <glyph glyph-name="operate_refresh" unicode="&#59047;" d="M832 134.4c-6.4 0-12.8 0-19.2 6.4-12.8 12.8-19.2 32-6.4 44.8 38.4 57.6 57.6 128 57.6 198.4 0 192-160 352-352 352-19.2 0-32 12.8-32 32s12.8 32 32 32c230.4 0 416-185.6 416-416 0-83.2-25.6-166.4-70.4-230.4-6.4-12.8-19.2-19.2-25.6-19.2zM320 768l192 128v-256zM512-32c-230.4 0-416 185.6-416 416 0 83.2 25.6 166.4 70.4 230.4 12.8 12.8 32 19.2 44.8 6.4 12.8-12.8 19.2-32 6.4-44.8-38.4-51.2-57.6-121.6-57.6-192 0-192 160-352 352-352 19.2 0 32-12.8 32-32s-12.8-32-32-32zM704 0l-192-128v256z"  horiz-adv-x="1024" />

    
    <glyph glyph-name="operate_merge" unicode="&#59048;" d="M960-96H544V864H960v-64H608v-832H960zM736 384l256 160v-320zM288 384l-256 160v-320zM480-96H64v64h352v832H64v64h416z"  horiz-adv-x="1024" />

    
    <glyph glyph-name="operate_release" unicode="&#59050;" d="M960-96H544V864H960v-64H608v-832H960zM64 384l256 160v-320zM960 384l-256 160v-320zM480-96H64v64h352v832H64v64h416z"  horiz-adv-x="1024" />

    
    <glyph glyph-name="operate_done" unicode="&#59051;" d="M512-96C249.6-96 32 121.6 32 384S249.6 864 512 864s480-217.6 480-480-217.6-480-480-480z m0 896C281.6 800 96 614.4 96 384s185.6-416 416-416 416 185.6 416 416S742.4 800 512 800zM441.6 140.8L198.4 390.4l44.8 44.8 198.4-204.8 339.2 339.2 51.2-44.8z"  horiz-adv-x="1024" />

    
    <glyph glyph-name="operate_delivery" unicode="&#59052;" d="M928-96h-832v704H896v-64H160v-576h704v89.6h64zM416 416h576v-64h-576zM992 544H32v320h960v-320z m-896 64h832v192h-832v-192zM544 224h448v-64h-448z"  horiz-adv-x="1024" />

    
    <glyph glyph-name="operate_add" unicode="&#59054;" d="M512-96C249.6-96 32 121.6 32 384S249.6 864 512 864s480-217.6 480-480-217.6-480-480-480z m0 896C281.6 800 96 614.4 96 384s185.6-416 416-416 416 185.6 416 416S742.4 800 512 800zM800 352h-256v-256h-64v256h-256v64h256v256h64v-256h256z"  horiz-adv-x="1024" />

    
    <glyph glyph-name="operate_more" unicode="&#59142;" d="M512 844.8c254.086 0 460.8-206.714 460.8-460.8S766.086-76.79999999999995 512-76.79999999999995 51.2 129.914 51.2 384 257.914 844.8 512 844.8M512 896C229.23 896 0 666.77 0 384c0-282.769 229.23-512 512-512s512 229.231 512 512C1024 666.77 794.77 896 512 896zM243.528 384m-76.8 0a76.8 76.8 0 1 1 153.6 0 76.8 76.8 0 1 1-153.6 0ZM512 384m-76.8 0a76.8 76.8 0 1 1 153.6 0 76.8 76.8 0 1 1-153.6 0ZM776.533 384m-76.8 0a76.8 76.8 0 1 1 153.6 0 76.8 76.8 0 1 1-153.6 0Z"  horiz-adv-x="1024" />

    
    <glyph glyph-name="operate_record" unicode="&#59046;" d="M704 768V832H320v-64H128v-832h768V768h-192zM384 768h256v-64H384V768z m448-768H192V704h128v-64h384V704h128v-704zM288 224h256v-64h-256zM288 384h448v-64h-448zM288 544h448v-64h-448z"  horiz-adv-x="1024" />

    
    <glyph glyph-name="operate_restore" unicode="&#59044;" d="M512-32c-230.4 0-416 185.6-416 416 0 19.2 12.8 32 32 32s32-12.8 32-32c0-192 160-352 352-352S864 192 864 384 704 736 512 736c-19.2 0-32 12.8-32 32s12.8 32 32 32c230.4 0 416-185.6 416-416s-185.6-416-416-416zM320 768l192 128v-256z"  horiz-adv-x="1024" />

    
    <glyph glyph-name="operate_duplicate" unicode="&#59045;" d="M608 832h-512v-761.6h704V659.2L608 832z m-25.6-64l153.6-134.4v-499.2h-576V768h422.4zM928 614.4v-672H256v64h608V614.4z"  horiz-adv-x="1024" />

    
    <glyph glyph-name="icon_filter_selected" unicode="&#59042;" d="M572.867133 58.181818c-14.321678 0-21.482517 0-28.643357 7.160839l-143.216783 71.608392c-21.482517 7.160839-42.965035 35.804196-42.965035 64.447552V480.671329L64.447552 752.783217C35.804196 774.265734 35.804196 824.391608 57.286713 853.034965c14.321678 14.321678 35.804196 21.482517 57.286714 21.482518h780.531468c42.965035 0 71.608392-28.643357 71.608392-71.608392 0-21.482517-7.160839-35.804196-21.482518-50.125874L644.475524 480.671329v-350.881119c0-42.965035-28.643357-71.608392-71.608391-71.608392zM114.573427 838.713287v-35.804196L429.65035 509.314685v-315.076923l143.216783-71.608391V509.314685l315.076923 293.594406H114.573427v35.804196z"  horiz-adv-x="1194" />

    
    <glyph glyph-name="icon_filter" unicode="&#59043;" d="M572.867133 58.181818c-14.321678 0-21.482517 0-28.643357 7.160839l-143.216783 71.608392c-21.482517 7.160839-42.965035 35.804196-42.965035 64.447552V480.671329L64.447552 752.783217C35.804196 774.265734 35.804196 824.391608 57.286713 853.034965c14.321678 14.321678 35.804196 21.482517 57.286714 21.482518h780.531468c42.965035 0 71.608392-28.643357 71.608392-71.608392 0-21.482517-7.160839-35.804196-21.482518-50.125874L644.475524 480.671329v-350.881119c0-42.965035-28.643357-71.608392-71.608391-71.608392zM114.573427 838.713287v-35.804196L429.65035 509.314685v-315.076923l143.216783-71.608391V509.314685l315.076923 293.594406H114.573427v35.804196z"  horiz-adv-x="1194" />

    
    <glyph glyph-name="baifenbi" unicode="&#59049;" d="M893.456828 186.944995M491.889987 558.060291M568.154951 557.006286M729.897705 284.889725c-91.560322 0-166.053943-74.492598-166.053943-166.053943s74.492598-166.053943 166.053943-166.053943 166.053943 74.492598 166.053943 166.053943S821.459051 284.889725 729.897705 284.889725zM729.897705-5.703653c-68.675102 0-124.540458 55.864332-124.540458 124.540458S661.222603 243.376239 729.897705 243.376239s124.540458-55.864332 124.540458-124.540458S798.573831-5.703653 729.897705-5.703653zM491.196185 682.591539c0 91.560322-74.492598 166.053943-166.053943 166.053943s-166.053943-74.492598-166.053943-166.053943S233.581919 516.537596 325.142242 516.537596 491.196185 591.031217 491.196185 682.591539zM200.602807 682.591539c0 68.675102 55.864332 124.540458 124.540458 124.540458S449.682699 751.266641 449.682699 682.591539s-55.864332-124.540458-124.540458-124.540458S200.602807 613.915413 200.602807 682.591539zM787.627525 829.904653c-9.688663 6.081509-22.5199 3.151783-28.611641-6.557346l-524.106736-835.456856c-6.090718-9.709129-3.151783-22.5199 6.557346-28.611641 3.426029-2.148943 7.236821-3.172249 11.006681-3.172249 6.912433 0 13.662161 3.445472 17.60496 9.729595L794.184871 801.293011C800.276612 811.003164 797.336654 823.813934 787.627525 829.904653z"  horiz-adv-x="1024" />

    
    <glyph glyph-name="signal_notice" unicode="&#59040;" d="M512 896c285.257143 0 512-226.742857 512-512s-226.742857-512-512-512-512 226.742857-512 512 226.742857 512 512 512z m0-73.142857C270.628571 822.857143 73.142857 625.371429 73.142857 384s197.485714-438.857143 438.857143-438.857143 438.857143 197.485714 438.857143 438.857143-197.485714 438.857143-438.857143 438.857143z m0-585.142857c43.885714 0 73.142857-29.257143 73.142857-73.142857s-29.257143-73.142857-73.142857-73.142858-73.142857 29.257143-73.142857 73.142858 29.257143 73.142857 73.142857 73.142857z m0 438.857143c43.885714 0 73.142857-29.257143 73.142857-73.142858v-219.428571c0-43.885714-29.257143-73.142857-73.142857-73.142857s-73.142857 29.257143-73.142857 73.142857V603.428571c0 43.885714 29.257143 73.142857 73.142857 73.142858z"  horiz-adv-x="1024" />

    
    <glyph glyph-name="signal_notice_selected" unicode="&#59041;" d="M512 896c285.257143 0 512-226.742857 512-512s-226.742857-512-512-512-512 226.742857-512 512 226.742857 512 512 512z m0-658.285714c-43.885714 0-73.142857-29.257143-73.142857-73.142857s29.257143-73.142857 73.142857-73.142858 73.142857 29.257143 73.142857 73.142858-29.257143 73.142857-73.142857 73.142857z m0 438.857143c-43.885714 0-73.142857-29.257143-73.142857-73.142858v-219.428571c0-43.885714 29.257143-73.142857 73.142857-73.142857s73.142857 29.257143 73.142857 73.142857V603.428571c0 43.885714-29.257143 73.142857-73.142857 73.142858z"  horiz-adv-x="1024" />

    
    <glyph glyph-name="nav_unfold" unicode="&#58884;" d="M368.896 384L768 10.24l-56.405333-52.906667L256 384l455.594667 426.666667L768 757.76z"  horiz-adv-x="1024" />

    
    <glyph glyph-name="nav_close" unicode="&#58883;" d="M655.104 384L256 10.24l56.405333-52.906667L768 384 312.405333 810.666667 256 757.76z"  horiz-adv-x="1024" />

    
    <glyph glyph-name="Group-" unicode="&#59053;" d="M896 384a384 384 0 1 1-384-384 384 384 0 0 1 384 384z m64 0A448 448 0 1 0 512 832a448 448 0 0 0 448-448zM512 493.12l105.28 105.6a32 32 0 0 0 45.44-45.44l-128-128a32 32 0 0 0-45.44 0l-128 128a32 32 0 0 0 45.44 45.44zM416 384a32 32 0 0 0 0 64h192a32 32 0 0 0 0-64zM416 256a32 32 0 0 0 0 64h192a32 32 0 0 0 0-64zM480 416a32 32 0 0 0 64 0v-256a32 32 0 0 0-64 0z"  horiz-adv-x="1024" />

    
    <glyph glyph-name="operate_cancellation" unicode="&#59027;" d="M928 876.8v-960h-236.8L569.6 64l-153.6-121.6-128 64-192-115.2V876.8h832z m-64-64h-704v-806.4l128 76.8 128-64 166.4 134.4 140.8-172.8h147.2v832z m-320-512v-64h-320v64h320z m256 192v-64h-576v64h576z m0 192v-64h-576v64h576z"  horiz-adv-x="1024" />

    
    <glyph glyph-name="operate_ban" unicode="&#59028;" d="M512 864c262.4 0 480-217.6 480-480s-217.6-480-480-480S32 121.6 32 384 249.6 864 512 864zM96 384c0-230.4 185.6-416 416-416 102.4 0 198.4 38.4 268.8 102.4L198.4 652.8C134.4 582.4 96 486.4 96 384zM512 800c-102.4 0-198.4-38.4-268.8-102.4l588.8-588.8c64 70.4 102.4 166.4 102.4 268.8-6.4 236.8-192 422.4-422.4 422.4z"  horiz-adv-x="1024" />

    
    <glyph glyph-name="operate_edit" unicode="&#59029;" d="M512 800v-64H160v-704h704v448h64v-512h-832v832H512z m352 44.8l44.8-44.8-556.8-620.8-44.8 44.8L864 844.8z"  horiz-adv-x="1024" />

    
    <glyph glyph-name="operate_check" unicode="&#59030;" d="M928-32v-64h-832v64h832zM512 864c121.6 0 224-96 224-211.2 0-57.6-19.2-96-51.2-147.2l-12.8-19.2c-25.6-25.6-32-44.8-32-70.4v-108.8l288-76.8V64h-832v172.8L384 313.6V416c0 25.6-6.4 38.4-32 70.4l-12.8 19.2c-32 51.2-51.2 89.6-51.2 147.2C288 768 390.4 864 512 864z m0-64c-89.6 0-160-64-160-147.2 0-44.8 12.8-70.4 44.8-108.8l12.8-19.2c25.6-38.4 38.4-64 38.4-108.8v-153.6L160 192v-64h704v64L576 262.4V416c0 38.4 12.8 64 32 96l6.4 12.8 25.6 32c25.6 32 32 57.6 32 96 0 83.2-70.4 147.2-160 147.2z"  horiz-adv-x="1024" />

    
    <glyph glyph-name="operate_cancel" unicode="&#59031;" d="M512 864c262.4 0 480-217.6 480-480s-217.6-480-480-480S32 121.6 32 384 249.6 864 512 864z m0-64C281.6 800 96 614.4 96 384s185.6-416 416-416 416 185.6 416 416S742.4 800 512 800z m179.2-192l44.8-44.8L556.8 384l179.2-179.2-44.8-44.8L512 339.2l-179.2-179.2-44.8 44.8L467.2 384 288 563.2l44.8 44.8L512 428.8l179.2 179.2z"  horiz-adv-x="1024" />

    
    <glyph glyph-name="operate_import" unicode="&#59032;" d="M96 377.6v-416h832V377.6h64v-480H32V377.6h64z m448 492.8v-659.2L768 435.2l44.8-44.8L512 89.6 211.2 390.4l44.8 44.8 224-224V870.4h64z"  horiz-adv-x="1024" />

    
    <glyph glyph-name="operate_print" unicode="&#59033;" d="M800 864v-192h192v-576h-128v-192h-704v192h-128v576h192v192h576z m0-512h-576v-384h576v384zM576 128v-64H320v64h256z m352 480h-832v-448h64v256h704v-256h64v448zM704 256v-64H320v64h384z m32 544h-448v-128h448v128z"  horiz-adv-x="1024" />

    
    <glyph glyph-name="operate_start" unicode="&#59034;" d="M780.8 723.2C889.6 640 960 512 960 371.2c0-249.6-198.4-448-448-448s-448 198.4-448 448C64 512 134.4 640 243.2 723.2l44.8-44.8C192 608 128 492.8 128 371.2c0-211.2 172.8-384 384-384s384 172.8 384 384c0 128-64 243.2-160 313.6l44.8 38.4zM544 844.8v-640h-64V844.8h64z"  horiz-adv-x="1024" />

    
    <glyph glyph-name="operate_save" unicode="&#59035;" d="M748.8 864l243.2-211.2v-748.8H32V864h716.8z m-25.6-64H96v-832h832V627.2l-204.8 172.8z m76.8-320v-384h-576v384h576z m-64-64h-448v-256h448v256z"  horiz-adv-x="1024" />

    
    <glyph glyph-name="operate_export" unicode="&#59036;" d="M96 377.6v-416h832V377.6h64v-480H32V377.6h64zM512 870.4l300.8-300.8-44.8-44.8-224 224v-659.2h-64V748.8L256 524.8l-44.8 44.8L512 870.4z"  horiz-adv-x="1024" />

    
    <glyph glyph-name="operate_recheck" unicode="&#59037;" d="M512 864c262.4 0 480-217.6 480-480s-217.6-480-480-480S32 121.6 32 384 249.6 864 512 864z m0-64C281.6 800 96 614.4 96 384s185.6-416 416-416 416 185.6 416 416S742.4 800 512 800zM390.4 659.2c12.8 12.8 32 19.2 44.8 6.4s19.2-32 6.4-44.8L384 550.4h217.6c108.8 0 192-89.6 192-192s-89.6-192-192-192H320c-19.2 0-32 12.8-32 32s12.8 32 32 32h288c70.4 0 128 57.6 128 128s-57.6 128-128 128H256l134.4 172.8z"  horiz-adv-x="1024" />

    
    <glyph glyph-name="operate_next" unicode="&#59038;" d="M512 896c281.6 0 512-230.4 512-512s-230.4-512-512-512-512 230.4-512 512 230.4 512 512 512z m0-64C262.4 832 64 633.6 64 384s198.4-448 448-448 448 198.4 448 448-198.4 448-448 448zM300.8 640l281.6-281.6-281.6-281.6L256 128l230.4 230.4L256 595.2l44.8 44.8z m435.2-25.6v-512h-64v512h64z"  horiz-adv-x="1024" />

    
    <glyph glyph-name="operate_previous" unicode="&#59039;" d="M512 896c281.6 0 512-230.4 512-512s-230.4-512-512-512-512 230.4-512 512 230.4 512 512 512z m0-64C262.4 832 64 633.6 64 384s198.4-448 448-448 448 198.4 448 448-198.4 448-448 448z m185.6-192l44.8-44.8L512 358.4l230.4-230.4-44.8-44.8-281.6 275.2L697.6 640zM320 614.4v-512H256v512h64z"  horiz-adv-x="1024" />

    
    <glyph glyph-name="operate_delete" unicode="&#59026;" d="M704 864v-192h256v-64h-64v-704H128v704H64v64h256v192h384z m128-256H192v-640h640v640z m-128-128v-384h-64v384h64z m-160 0v-384h-64v384h64zM384 480v-384H320v384h64z m256 320H384v-128h256v128z"  horiz-adv-x="1024" />

    


  </font>
</defs>
</svg>
