<?xml version="1.0" standalone="no"?><!DOCTYPE svg PUBLIC "-//W3C//DTD SVG 1.1//EN" "http://www.w3.org/Graphics/SVG/1.1/DTD/svg11.dtd"><svg class="icon" width="200px" height="200.00px" viewBox="0 0 1024 1024" version="1.1" xmlns="http://www.w3.org/2000/svg"><path fill="#333333" d="M216.338028 497.577465c28.84507-21.633803 72.112676-21.633803 93.746479 7.211267l151.43662 151.43662 14.422535 7.211268c21.633803 28.84507 21.633803 72.112676-7.211268 93.746479l-14.422535 14.422535c-28.84507 28.84507-72.112676 50.478873-122.591549 50.478873l-194.704225 7.211268 7.211267-187.492958c0-43.267606 21.633803-86.535211 50.478873-122.591549l21.633803-21.633803zM656.225352 57.690141c43.267606-43.267606 108.169014-43.267606 151.43662 0L908.619718 158.647887c43.267606 43.267606 43.267606 108.169014 0 151.43662l-360.56338 360.56338c0-21.633803-14.422535-43.267606-28.84507-64.901408L367.774648 454.309859 353.352113 447.098592c-14.422535-14.422535-36.056338-21.633803-50.478874-28.845071l353.352113-360.56338z"  /><path fill="#333333" d="M973.521127 937.464789c21.633803 0 36.056338 14.422535 36.056338 36.056338 0 14.422535-14.422535 28.84507-28.845071 36.056338H36.056338c-21.633803 0-36.056338-14.422535-36.056338-36.056338 0-14.422535 14.422535-28.84507 28.84507-36.056338h944.676057z"  /></svg>