<?xml version="1.0" standalone="no"?><!DOCTYPE svg PUBLIC "-//W3C//DTD SVG 1.1//EN" "http://www.w3.org/Graphics/SVG/1.1/DTD/svg11.dtd"><svg t="1572341778873" class="icon" viewBox="0 0 2054 1024" version="1.1" xmlns="http://www.w3.org/2000/svg" p-id="7768" xmlns:xlink="http://www.w3.org/1999/xlink" width="401.171875" height="200"><defs><style type="text/css"></style></defs><path d="M1008.901271 531.377862A1546.750017 1546.750017 0 0 1 38.964463 193.221988 104.369097 104.369097 0 0 1 166.990555 31.797785 1343.578175 1343.578175 0 0 0 1008.901271 325.770741 1343.230278 1343.230278 0 0 0 1853.247265 31.797785 104.369097 104.369097 0 1 1 1983.012842 193.221988 1545.706326 1545.706326 0 0 1 1008.901271 531.377862z" fill="" p-id="7769"></path><path d="M1113.270368 919.630903a104.369097 104.369097 0 0 1-104.369097 104.369097 104.369097 104.369097 0 0 1-104.369097-104.369097V507.37297a104.369097 104.369097 0 0 1 104.369097-104.369097 104.369097 104.369097 0 0 1 104.369097 104.369097zM457.484542 831.265068A104.369097 104.369097 0 0 1 338.155874 914.064551a104.369097 104.369097 0 0 1-83.495277-119.328667l69.579398-405.995788a104.369097 104.369097 0 0 1 119.676564-83.495277 104.369097 104.369097 0 0 1 85.234763 121.763946zM1765.577224 795.431678a104.369097 104.369097 0 0 1-83.495278 118.632873 104.369097 104.369097 0 0 1-119.328667-83.495277L1491.086499 427.008765a104.369097 104.369097 0 0 1 83.843174-119.328667 104.369097 104.369097 0 0 1 119.328668 83.495277z" fill="" p-id="7770"></path></svg>