<?xml version="1.0" standalone="no"?><!DOCTYPE svg PUBLIC "-//W3C//DTD SVG 1.1//EN" "http://www.w3.org/Graphics/SVG/1.1/DTD/svg11.dtd"><svg t="1572341869227" class="icon" viewBox="0 0 1516 1024" version="1.1" xmlns="http://www.w3.org/2000/svg" p-id="8021" xmlns:xlink="http://www.w3.org/1999/xlink" width="296.09375" height="200"><defs><style type="text/css"></style></defs><path d="M758.025974 307.2c-114.395429 0-206.728312 91.481766-206.728312 204.8S643.630545 716.8 758.025974 716.8s206.728312-91.481766 206.728312-204.8S872.421403 307.2 758.025974 307.2z m0 546.137766c-190.198026 0-344.569351-152.921766-344.569351-341.337766 0-188.416 154.371325-341.337766 344.569351-341.337766S1102.595325 323.584 1102.595325 512c0 188.416-154.371325 341.337766-344.569351 341.337766zM758.025974 0C413.456623 0 119.222857 212.313766 0 512 119.222857 811.686234 413.456623 1024 758.025974 1024s638.803117-212.313766 758.025974-512C1396.829091 212.313766 1102.595325 0 758.025974 0z" p-id="8022"></path></svg>