<?xml version="1.0" encoding="UTF-8"?>
<svg width="20px" height="20px" viewBox="0 0 20 20" version="1.1" xmlns="http://www.w3.org/2000/svg" xmlns:xlink="http://www.w3.org/1999/xlink">
    <!-- Generator: Sketch 59 (86127) - https://sketch.com -->
    <title>field_nature</title>
    <desc>Created with Sketch.</desc>
    <defs>
        <linearGradient x1="-1.11022302e-14%" y1="50%" x2="100%" y2="50%" id="linearGradient-1">
            <stop stop-color="#54BAFA" offset="0%"></stop>
            <stop stop-color="#1C5EF5" offset="100%"></stop>
        </linearGradient>
    </defs>
    <g id="设计稿" stroke="none" stroke-width="1" fill="none" fill-rule="evenodd">
        <g id="配置中心-字段配置-自定义字段" transform="translate(-898.000000, -141.000000)">
            <g id="编组-12" transform="translate(188.000000, 76.000000)">
                <g id="编组-9备份" transform="translate(710.000000, 65.000000)">
                    <g id="field_nature">
                        <rect id="矩形" x="0" y="0" width="20" height="20"></rect>
                        <path d="M10,0 C15.5228475,0 20,4.4771525 20,10 C20,15.5228475 15.5228475,20 10,20 C4.4771525,20 0,15.5228475 0,10 C0,4.4771525 4.4771525,0 10,0 Z M11.8148184,7.48321154 C11.3332082,6.97223603 10.7846169,6.90920056 10.0398218,7.09663836 C9.54329173,7.2215969 9.01012821,7.67862325 8.44033125,8.46771741 C8.85786968,8.34543204 9.27154301,8.28428935 9.68135124,8.28428935 C8.23490674,11.4051176 7.62542187,14.77821 8.23490674,15.6967585 C8.84439161,16.6153069 9.60858451,16.7298048 10.2205037,16.7298048 C10.8324229,16.7298048 12.0549684,16.1902841 12.4942821,15.0501854 C11.3463583,15.0501854 10.7924052,14.8041673 10.8324229,14.3121313 C10.8324229,9.68969727 12.1025499,7.78848695 11.8148184,7.48321154 Z M10.5,3 C9.67157288,3 9,3.67157288 9,4.5 C9,5.32842712 9.67157288,6 10.5,6 C11.3284271,6 12,5.32842712 12,4.5 C12,3.67157288 11.3284271,3 10.5,3 Z" id="形状结合" fill="url(#linearGradient-1)"></path>
                    </g>
                </g>
            </g>
        </g>
    </g>
</svg>