<?xml version="1.0" encoding="UTF-8"?>
<svg width="20px" height="20px" viewBox="0 0 20 20" version="1.1" xmlns="http://www.w3.org/2000/svg" xmlns:xlink="http://www.w3.org/1999/xlink">
    <title>module</title>
    <defs>
        <linearGradient x1="-1.11022302e-14%" y1="50%" x2="100%" y2="50%" id="linearGradient-1">
            <stop stop-color="#54BAFA" offset="0%"></stop>
            <stop stop-color="#1C5EF5" offset="100%"></stop>
        </linearGradient>
    </defs>
    <g id="渠道档案/配置中心" stroke="none" stroke-width="1" fill="none" fill-rule="evenodd">
        <g id="配置中心-菜单管理" transform="translate(-906.000000, -88.000000)">
            <g id="编组-12" transform="translate(180.000000, 68.000000)">
                <g id="编组-9备份" transform="translate(726.000000, 20.000000)">
                    <g id="module">
                        <rect id="矩形" x="0" y="0" width="20" height="20"></rect>
                        <path d="M10,20 C15.5228475,20 20,15.5228475 20,10 C20,4.4771525 15.5228475,0 10,0 C4.4771525,0 0,4.4771525 0,10 C0,15.5228475 4.4771525,20 10,20 Z M6,5 L8,5 C8.55228475,5 9,5.44771525 9,6 L9,8 C9,8.55228475 8.55228475,9 8,9 L6,9 C5.44771525,9 5,8.55228475 5,8 L5,6 C5,5.44771525 5.44771525,5 6,5 Z M6,11 L8,11 C8.55228475,11 9,11.4477153 9,12 L9,14 C9,14.5522847 8.55228475,15 8,15 L6,15 C5.44771525,15 5,14.5522847 5,14 L5,12 C5,11.4477153 5.44771525,11 6,11 Z M12,5 L14,5 C14.5522847,5 15,5.44771525 15,6 L15,8 C15,8.55228475 14.5522847,9 14,9 L12,9 C11.4477153,9 11,8.55228475 11,8 L11,6 C11,5.44771525 11.4477153,5 12,5 Z M12,11 L14,11 C14.5522847,11 15,11.4477153 15,12 L15,14 C15,14.5522847 14.5522847,15 14,15 L12,15 C11.4477153,15 11,14.5522847 11,14 L11,12 C11,11.4477153 11.4477153,11 12,11 Z" id="形状结合" fill="url(#linearGradient-1)"></path>
                    </g>
                </g>
            </g>
        </g>
    </g>
</svg>