<?xml version="1.0" encoding="UTF-8"?>
<svg width="16px" height="16px" viewBox="0 0 16 16" version="1.1" xmlns="http://www.w3.org/2000/svg" xmlns:xlink="http://www.w3.org/1999/xlink">
    <title>nav_sale</title>
    <g id="规范" stroke="none" stroke-width="1" fill="none" fill-rule="evenodd" opacity="0.600000024">
        <g id="icon" transform="translate(-262.000000, -338.000000)">
            <g id="编组-11" transform="translate(32.000000, 102.000000)">
                <g id="编组-8" transform="translate(204.000000, 236.000000)">
                    <g id="nav_sale备份" transform="translate(26.000000, 0.000000)">
                        <g id="nav_sale">
                            <rect id="矩形" opacity="0.600000024" x="0" y="0" width="16" height="16" rx="2"></rect>
                            <path d="M9.55764654,1.17550461 L10.4297489,2.95457434 L12.3644286,2.52717962 L12.3782563,4.50845711 L14.3067821,4.96281383 L13.4595963,6.75388277 L15,8 L13.4595963,9.24611723 L14.3067821,11.0371862 L12.3782563,11.4915429 L12.3644286,13.4728204 L10.4297489,13.0454257 L9.55764654,14.8244954 L8,13.6 L6.44235346,14.8244954 L5.57025106,13.0454257 L3.63557139,13.4728204 L3.6217437,11.4915429 L1.69321792,11.0371862 L2.54040369,9.24611723 L1,8 L2.54040369,6.75388277 L1.69321792,4.96281383 L3.6217437,4.50845711 L3.63557139,2.52717962 L5.57025106,2.95457434 L6.44235346,1.17550461 L8,2.4 L9.55764654,1.17550461 Z M9.71028037,5 L9.10046729,5 L6.28971963,11 L6.89953271,11 L9.71028037,5 Z M9.81542056,7.72506739 C9.4228972,7.72506739 9.11448598,7.8787062 8.90420561,8.20215633 C8.70794393,8.47708895 8.61682243,8.8490566 8.61682243,9.30997305 C8.61682243,9.76280323 8.70794393,10.1266846 8.90420561,10.4177898 C9.11448598,10.7250674 9.4228972,10.8867925 9.81542056,10.8867925 C10.2079439,10.8867925 10.5093458,10.7250674 10.7196262,10.4177898 C10.9018692,10.1347709 11,9.76280323 11,9.30997305 C11,8.8490566 10.9018692,8.47708895 10.7196262,8.20215633 C10.5093458,7.8787062 10.2079439,7.72506739 9.81542056,7.72506739 Z M9.81542056,8.31536388 C9.98364486,8.31536388 10.1028037,8.42048518 10.1728972,8.63881402 C10.228972,8.80053908 10.2570093,9.01886792 10.2570093,9.30997305 C10.2570093,9.58490566 10.228972,9.8032345 10.1799065,9.96495957 C10.1028037,10.1832884 9.98364486,10.296496 9.81542056,10.296496 C9.64018692,10.296496 9.51401869,10.1913747 9.44392523,9.98113208 C9.38785047,9.81940701 9.35981308,9.59299191 9.35981308,9.30997305 C9.35981308,9.01886792 9.38785047,8.79245283 9.44392523,8.63072776 C9.51401869,8.42048518 9.64018692,8.31536388 9.81542056,8.31536388 Z M6.19859813,5.11320755 C5.80607477,5.11320755 5.49766355,5.26684636 5.28738318,5.5902965 C5.0911215,5.86522911 5,6.23719677 5,6.69811321 C5,7.1509434 5.0911215,7.5148248 5.28738318,7.80592992 C5.49766355,8.11320755 5.80607477,8.27493261 6.19859813,8.27493261 C6.5911215,8.27493261 6.89252336,8.11320755 7.10280374,7.80592992 C7.28504673,7.52291105 7.38317757,7.1509434 7.38317757,6.69811321 C7.38317757,6.23719677 7.28504673,5.86522911 7.10280374,5.5902965 C6.89252336,5.26684636 6.5911215,5.11320755 6.19859813,5.11320755 Z M6.19859813,5.70350404 C6.36682243,5.70350404 6.48598131,5.80862534 6.55607477,6.02695418 C6.61214953,6.18867925 6.64018692,6.40700809 6.64018692,6.69811321 C6.64018692,6.97304582 6.61214953,7.19137466 6.56308411,7.35309973 C6.48598131,7.57142857 6.36682243,7.68463612 6.19859813,7.68463612 C6.02336449,7.68463612 5.89719626,7.57951482 5.8271028,7.36927224 C5.77102804,7.20754717 5.74299065,6.98113208 5.74299065,6.69811321 C5.74299065,6.40700809 5.77102804,6.18059299 5.8271028,6.01886792 C5.89719626,5.80862534 6.02336449,5.70350404 6.19859813,5.70350404 Z" id="形状结合" fill="#FFFFFF"></path>
                        </g>
                    </g>
                </g>
            </g>
        </g>
    </g>
</svg>