<?xml version="1.0" encoding="UTF-8"?>
<svg width="16px" height="16px" viewBox="0 0 16 16" version="1.1" xmlns="http://www.w3.org/2000/svg" xmlns:xlink="http://www.w3.org/1999/xlink">
    <title>nav_manage</title>
    <g id="规范" stroke="none" stroke-width="1" fill="none" fill-rule="evenodd" opacity="0.600000024">
        <g id="icon" transform="translate(-262.000000, -384.000000)">
            <g id="编组-11" transform="translate(32.000000, 102.000000)">
                <g id="编组-10" transform="translate(204.000000, 282.000000)">
                    <g id="nav_manage备份" transform="translate(26.000000, 0.000000)">
                        <g id="nav_manage">
                            <rect id="矩形" opacity="0.600000024" x="0" y="0" width="16" height="16" rx="2"></rect>
                            <path d="M15,8 L15,13 C15,13.5522847 14.5522847,14 14,14 L2,14 C1.44771525,14 1,13.5522847 1,13 L1,8 L15,8 Z M10,9 L6,9 L6,11 L10,11 L10,9 Z M10,1 C10.5522847,1 11,1.44771525 11,2 L11,4 L14,4 C14.5522847,4 15,4.44771525 15,5 L15,7 L1,7 L1,5 C1,4.44771525 1.44771525,4 2,4 L5,4 L5,2 C5,1.44771525 5.44771525,1 6,1 L10,1 Z M10,2 L6,2 L6,4 L10,4 L10,2 Z" id="形状结合" fill="#FFFFFF"></path>
                        </g>
                    </g>
                </g>
            </g>
        </g>
    </g>
</svg>