<?xml version="1.0" encoding="UTF-8"?>
<svg width="16px" height="16px" viewBox="0 0 16 16" version="1.1" xmlns="http://www.w3.org/2000/svg" xmlns:xlink="http://www.w3.org/1999/xlink">
    <title>nav_content</title>
    <g id="规范" stroke="none" stroke-width="1" fill="none" fill-rule="evenodd" opacity="0.600000024">
        <g id="icon" transform="translate(-170.000000, -292.000000)">
            <g id="编组-11" transform="translate(32.000000, 102.000000)">
                <g id="编组-2" transform="translate(112.000000, 190.000000)">
                    <g id="nav_content备份" transform="translate(26.000000, 0.000000)">
                        <g id="nav_content">
                            <rect id="矩形" x="0" y="0" width="16" height="16" rx="2"></rect>
                            <path d="M13,1 C13.5522847,1 14,1.44771525 14,2 L14,14 C14,14.5522847 13.5522847,15 13,15 L3,15 C2.44771525,15 2,14.5522847 2,14 L2,2 C2,1.44771525 2.44771525,1 3,1 L13,1 Z M11.5,12 L4.5,12 C4.22385763,12 4,12.2238576 4,12.5 C4,12.7761424 4.22385763,13 4.5,13 L4.5,13 L11.5,13 C11.7761424,13 12,12.7761424 12,12.5 C12,12.2238576 11.7761424,12 11.5,12 L11.5,12 Z M11.5,9 L4.5,9 C4.22385763,9 4,9.22385763 4,9.5 C4,9.77614237 4.22385763,10 4.5,10 L4.5,10 L11.5,10 C11.7761424,10 12,9.77614237 12,9.5 C12,9.22385763 11.7761424,9 11.5,9 L11.5,9 Z M8,3 L5,3 C4.44771525,3 4,3.44771525 4,4 L4,4 L4,6 C4,6.55228475 4.44771525,7 5,7 L5,7 L8,7 C8.55228475,7 9,6.55228475 9,6 L9,6 L9,4 C9,3.44771525 8.55228475,3 8,3 L8,3 Z" id="形状结合" fill="#FFFFFF"></path>
                        </g>
                    </g>
                </g>
            </g>
        </g>
    </g>
</svg>