<?xml version="1.0" encoding="UTF-8"?>
<svg width="16px" height="16px" viewBox="0 0 16 16" version="1.1" xmlns="http://www.w3.org/2000/svg" xmlns:xlink="http://www.w3.org/1999/xlink">
    <title>nav_review</title>
    <g id="规范" stroke="none" stroke-width="1" fill="none" fill-rule="evenodd" opacity="0.600000024">
        <g id="icon" transform="translate(-354.000000, -384.000000)">
            <g id="编组-11" transform="translate(32.000000, 102.000000)">
                <g id="编组-18备份-2" transform="translate(322.000000, 282.000000)">
                    <rect id="矩形" x="0" y="0" width="16" height="16" rx="2"></rect>
                    <path d="M6,0.5 C9.03756612,0.5 11.5,2.96243388 11.5,6 C11.5,7.03933447 11.2117139,8.01133611 10.710743,8.84040347 L10.732233,8.81801948 L14.9748737,13.0606602 C15.365398,13.4511845 15.365398,14.0843494 14.9748737,14.4748737 C14.5843494,14.865398 13.9511845,14.865398 13.5606602,14.4748737 L9.40489094,10.3196316 C8.46837751,11.0588382 7.28570819,11.5 6,11.5 C2.96243388,11.5 0.5,9.03756612 0.5,6 C0.5,2.96243388 2.96243388,0.5 6,0.5 Z M6,2.5 C4.06700338,2.5 2.5,4.06700338 2.5,6 C2.5,6.27614237 2.72385763,6.5 3,6.5 C3.27614237,6.5 3.5,6.27614237 3.5,6 C3.5,4.61928813 4.61928813,3.5 6,3.5 C6.27614237,3.5 6.5,3.27614237 6.5,3 C6.5,2.72385763 6.27614237,2.5 6,2.5 Z" id="形状结合" fill="#FFFFFF" fill-rule="nonzero"></path>
                </g>
            </g>
        </g>
    </g>
</svg>