<?xml version="1.0" encoding="UTF-8"?>
<svg width="16px" height="16px" viewBox="0 0 16 16" version="1.1" xmlns="http://www.w3.org/2000/svg" xmlns:xlink="http://www.w3.org/1999/xlink">
    <!-- Generator: Sketch 59 (86127) - https://sketch.com -->
    <title>nav_scm</title>
    <desc>Created with Sketch.</desc>
    <g id="规范" stroke="none" stroke-width="1" fill="none" fill-rule="evenodd" opacity="0.600000024">
        <g id="示例-单据" transform="translate(-12.000000, -167.000000)">
            <g id="编组-3">
                <g id="编组备份" transform="translate(0.000000, 152.000000)">
                    <g id="编组-18备份" transform="translate(12.000000, 15.000000)">
                        <rect id="矩形" x="0" y="0" width="16" height="16" rx="2"></rect>
                        <path d="M13.25,2 C14.2164983,2 15,2.8954305 15,4 L15,12 C15,13.1045695 14.2164983,14 13.25,14 L2.75,14 C1.78350169,14 1,13.1045695 1,12 L1,4 C1,2.8954305 1.78350169,2 2.75,2 L13.25,2 Z M3.74973348,5.56329114 C2.68789979,5.56329114 2.05463753,6.17721519 2.05463753,6.97468354 C2.05463753,7.55890944 2.44706255,7.99213542 3.09104208,8.30422959 L3.25719616,8.37974684 C3.80090618,8.61392405 4.03757996,8.82278481 4.03757996,9.17088608 C4.03757996,9.53164557 3.76252665,9.77848101 3.2380064,9.77848101 C2.84141791,9.77848101 2.43203625,9.65822785 2.17617271,9.50632911 L1.99067164,10.2911392 C2.22094883,10.4303797 2.71348614,10.5632911 3.19962687,10.5632911 C4.3446162,10.5632911 4.99067164,9.94303797 4.99067164,9.09493671 C4.99067164,8.50486855 4.69090252,8.07658602 4.02596012,7.74039686 L3.85207889,7.65822785 C3.25079957,7.38607595 3.00772921,7.2278481 3.00772921,6.87974684 C3.00772921,6.60759494 3.23160981,6.34177215 3.73054371,6.34177215 C4.13352878,6.34177215 4.43416844,6.46202532 4.60687633,6.55063291 L4.80517058,5.78481013 C4.57489339,5.67088608 4.21668443,5.56329114 3.74973348,5.56329114 Z M7.60074627,5.5 C6.45895522,5.5 5.49067164,6.36075949 5.49067164,8.06329114 C5.49067164,9.50632911 6.20708955,10.5 7.5,10.5 C7.94216418,10.5 8.2891791,10.4050633 8.45149254,10.3164557 L8.33395522,9.56329114 C8.16604478,9.64556962 7.89179104,9.70253165 7.63432836,9.70253165 C6.85634328,9.70253165 6.35820896,9.11392405 6.35820896,8.01265823 C6.35820896,6.83544304 6.92910448,6.28481013 7.63992537,6.28481013 C7.93656716,6.28481013 8.16044776,6.36075949 8.32835821,6.44303797 L8.49067164,5.6835443 C8.36753731,5.60759494 8.06529851,5.5 7.60074627,5.5 Z M10.5266194,5.5 L9.33054092,5.5 L8.99067164,10.5 L9.87302458,10.5 L9.99526723,8.0926528 C10.0188579,7.59403446 10.0396912,7.05884265 10.0494952,6.58582575 L10.0494952,6.58582575 L10.069103,6.58582575 C10.1867501,7.1970091 10.3436128,7.87321196 10.5070115,8.43888166 L10.5070115,8.43888166 L11.0625671,10.4284785 L11.7945932,10.4284785 L12.4089723,8.40637191 C12.5789069,7.84720416 12.7619135,7.1840052 12.9057043,6.58582575 L12.9057043,6.58582575 L12.9253122,6.58582575 C12.9187762,7.09297789 12.951456,7.89921977 12.9775997,8.55591678 L12.9775997,8.55591678 L13.069103,10.5 L13.9906716,10.5 L13.7030899,5.5 L12.5135475,5.5 L11.94492,7.37906372 C11.7749854,7.97724317 11.6246586,8.58192458 11.5070115,9.14109233 L11.5070115,9.14109233 L11.4874037,9.14109233 C11.3762926,8.56892068 11.2325017,7.98374512 11.069103,7.37906372 L11.069103,7.37906372 L10.5266194,5.5 Z" id="形状结合" fill="#FFFFFF" fill-rule="nonzero"></path>
                    </g>
                </g>
            </g>
        </g>
    </g>
</svg>