<?xml version="1.0" encoding="UTF-8"?>
<svg width="16px" height="16px" viewBox="0 0 16 16" version="1.1" xmlns="http://www.w3.org/2000/svg" xmlns:xlink="http://www.w3.org/1999/xlink">
    <!-- Generator: Sketch 60 (88103) - https://sketch.com -->
    <title>nav_authority</title>
    <desc>Created with Sketch.</desc>
    <g id="规范" stroke="none" stroke-width="1" fill="none" fill-rule="evenodd" opacity="0.600000024">
        <g id="导航布局" transform="translate(-12.000000, -485.000000)">
            <g id="编组-3">
                <g id="编组备份-11" transform="translate(0.000000, 472.000000)">
                    <g id="编组-24" transform="translate(9.000000, 11.000000)">
                        <rect id="矩形" x="3" y="2" width="16" height="16" rx="2"></rect>
                        <path d="M17.2175144,3.78248558 C18.9748737,5.53984489 18.9748737,8.3890873 17.2175144,10.1464466 C15.832083,11.531878 13.7680341,11.825091 12.0953571,11.0260856 L6.25735912,16.8639608 L3.71421013,17.149239 L3.99948827,14.60609 L5.82419107,12.7813872 L6.84383202,12.646619 L7.24101248,10.2838175 L8.46570026,10.139878 L9.88873306,8.71510673 C9.19840514,7.07830414 9.52001192,5.11602705 10.8535534,3.78248558 C12.6109127,2.02512627 15.4601551,2.02512627 17.2175144,3.78248558 Z M14.5606602,4.19669914 C13.9748737,3.6109127 13.0251263,3.6109127 12.4393398,4.19669914 C11.8792187,4.75682029 11.8546779,5.6497084 12.3657174,6.23898885 L12.4847696,6.12080861 L13.0540427,6.68985132 C13.5689435,6.84966847 14.1529551,6.72572453 14.5606602,6.31801948 C15.1464466,5.73223305 15.1464466,4.78248558 14.5606602,4.19669914 Z" id="形状" fill="#FFFFFF"></path>
                    </g>
                </g>
            </g>
        </g>
    </g>
</svg>