<?xml version="1.0" encoding="UTF-8"?>
<svg width="16px" height="16px" viewBox="0 0 16 16" version="1.1" xmlns="http://www.w3.org/2000/svg" xmlns:xlink="http://www.w3.org/1999/xlink">
    <title>nav_account</title>
    <g id="规范" stroke="none" stroke-width="1" fill="none" fill-rule="evenodd" opacity="0.600000024">
        <g id="icon" transform="translate(-354.000000, -338.000000)">
            <g id="编组-11" transform="translate(32.000000, 102.000000)">
                <g id="nav_account备份" transform="translate(322.000000, 236.000000)">
                    <g id="nav_account">
                        <rect id="矩形" opacity="0.600000024" x="0" y="0" width="16" height="16" rx="2"></rect>
                        <path d="M4,1.5 L4,2.5 C4,3.05228475 4.44771525,3.5 5,3.5 C5.51283584,3.5 5.93550716,3.11395981 5.99327227,2.61662113 L6,2.5 L6,1.5 L10,1.5 L10,2.5 C10,3.01283584 10.3860402,3.43550716 10.8833789,3.49327227 L11,3.5 C11.5128358,3.5 11.9355072,3.11395981 11.9932723,2.61662113 L12,2.5 L12,1.5 L13,1.5 C13.5522847,1.5 14,1.94771525 14,2.5 L14,14.5 C14,15.0522847 13.5522847,15.5 13,15.5 L3,15.5 C2.44771525,15.5 2,15.0522847 2,14.5 L2,2.5 C2,1.94771525 2.44771525,1.5 3,1.5 L4,1.5 Z M6.45392491,5.5 L5,5.5 L6.96587031,9.06313993 L5.66552901,9.06313993 L5.66552901,9.73890785 L7.3447099,9.73890785 L7.35494881,9.74914676 L7.35494881,10.5989761 L5.66552901,10.5989761 L5.66552901,11.274744 L7.35494881,11.274744 L7.35494881,12.8105802 L8.64505119,12.8105802 L8.64505119,11.274744 L10.3447099,11.274744 L10.3447099,10.5989761 L8.64505119,10.5989761 L8.64505119,9.74914676 L8.6552901,9.73890785 L10.3447099,9.73890785 L10.3447099,9.06313993 L9.03412969,9.06313993 L11,5.5 L9.54607509,5.5 L8,8.58191126 L6.45392491,5.5 Z M5,0 C5.27614237,-5.07265313e-17 5.5,0.223857625 5.5,0.5 L5.5,2.5 C5.5,2.77614237 5.27614237,3 5,3 C4.72385763,3 4.5,2.77614237 4.5,2.5 L4.5,0.5 C4.5,0.223857625 4.72385763,5.07265313e-17 5,0 Z M11,0 C11.2761424,-5.07265313e-17 11.5,0.223857625 11.5,0.5 L11.5,2.5 C11.5,2.77614237 11.2761424,3 11,3 C10.7238576,3 10.5,2.77614237 10.5,2.5 L10.5,0.5 C10.5,0.223857625 10.7238576,5.07265313e-17 11,0 Z" id="形状结合" fill="#FFFFFF"></path>
                    </g>
                </g>
            </g>
        </g>
    </g>
</svg>