<?xml version="1.0" encoding="UTF-8"?>
<svg width="16px" height="16px" viewBox="0 0 16 16" version="1.1" xmlns="http://www.w3.org/2000/svg" xmlns:xlink="http://www.w3.org/1999/xlink">
    <title>nav_home</title>
    <g id="规范" stroke="none" stroke-width="1" fill="none" fill-rule="evenodd" opacity="0.600000024">
        <g id="icon" transform="translate(-78.000000, -292.000000)">
            <g id="编组-11" transform="translate(32.000000, 102.000000)">
                <g id="编组-6" transform="translate(20.000000, 190.000000)">
                    <g id="nav_home备份" transform="translate(26.000000, 0.000000)">
                        <g id="nav_home">
                            <rect id="矩形" x="0" y="0" width="16" height="16" rx="2"></rect>
                            <path d="M8.51449576,1.30869745 L14.9041785,5.14250707 C15.3777587,5.42665523 15.5313238,6.04091549 15.2471756,6.51449576 C15.0664524,6.81570117 14.7409456,7 14.3896827,7 L13.9993173,6.99919038 L14,14 C14,14.5522847 13.5522847,15 13,15 L3,15 C2.44771525,15 2,14.5522847 2,14 L1.9993173,6.99919038 L1.6103173,7 C1.05803255,7 0.610317298,6.55228475 0.610317298,6 C0.610317298,5.64873715 0.794616132,5.32323032 1.09582154,5.14250707 L7.48550424,1.30869745 C7.80218663,1.11868802 8.19781337,1.11868802 8.51449576,1.30869745 Z M9,9 L7,9 C6.44771525,9 6,9.44771525 6,10 L6,10 L6,12 C6,12.5522847 6.44771525,13 7,13 L7,13 L9,13 C9.55228475,13 10,12.5522847 10,12 L10,12 L10,10 C10,9.44771525 9.55228475,9 9,9 L9,9 Z" id="形状结合" fill="#FFFFFF"></path>
                        </g>
                    </g>
                </g>
            </g>
        </g>
    </g>
</svg>