<?xml version="1.0" encoding="UTF-8"?>
<svg width="16px" height="16px" viewBox="0 0 16 16" version="1.1" xmlns="http://www.w3.org/2000/svg" xmlns:xlink="http://www.w3.org/1999/xlink">
    <!-- Generator: Sketch 59 (86127) - https://sketch.com -->
    <title>operate_start</title>
    <desc>Created with Sketch.</desc>
    <g id="设计稿" stroke="none" stroke-width="1" fill="none" fill-rule="evenodd">
        <g id="角色权限-模块权限" transform="translate(-594.000000, -98.000000)">
            <g id="编组-12" transform="translate(188.000000, 76.000000)">
                <g id="编组-9">
                    <g id="编组-11" transform="translate(16.000000, 16.000000)">
                        <g id="编组-8备份-4" transform="translate(390.000000, 6.000000)">
                            <g id="operate_start">
                                <g>
                                    <rect id="矩形" x="0" y="0" width="16" height="16"></rect>
                                    <path d="M15,8 C15,11.8659932 11.8659932,15 8,15 C4.13400675,15 1,11.8659932 1,8 C1,5.72470189 2.08556131,3.70295021 3.76700851,2.42442038 L4.48196643,3.13907085 C2.97810733,4.22936098 2,6.00045589 2,8 C2,11.3137085 4.6862915,14 8,14 C11.3137085,14 14,11.3137085 14,8 C14,6.00045589 13.0218927,4.22936098 11.5180336,3.13907085 L12.2329915,2.42442038 C13.9144387,3.70295021 15,5.72470189 15,8 Z" id="形状结合" fill="#24283F" fill-rule="nonzero"></path>
                                    <line x1="8" y1="1" x2="8" y2="10" id="直线-5" stroke="#24283F" stroke-linecap="square"></line>
                                </g>
                            </g>
                        </g>
                    </g>
                </g>
            </g>
        </g>
    </g>
</svg>