<?xml version="1.0" standalone="no"?><!DOCTYPE svg PUBLIC "-//W3C//DTD SVG 1.1//EN" "http://www.w3.org/Graphics/SVG/1.1/DTD/svg11.dtd"><svg t="1572340804612" class="icon" viewBox="0 0 1024 1024" version="1.1" xmlns="http://www.w3.org/2000/svg" p-id="7296" xmlns:xlink="http://www.w3.org/1999/xlink" width="200" height="200"><defs><style type="text/css"></style></defs><path d="M877.714286 475.428571H146.285714v438.857143h731.428572V475.428571zM256 365.714286V256a256 256 0 0 1 512 0v109.714286h146.285714a73.142857 73.142857 0 0 1 73.142857 73.142857v512a73.142857 73.142857 0 0 1-73.142857 73.142857H109.714286a73.142857 73.142857 0 0 1-73.142857-73.142857V438.857143a73.142857 73.142857 0 0 1 73.142857-73.142857h146.285714z m109.714286 0h292.571428V256a146.285714 146.285714 0 1 0-292.571428 0v109.714286z" fill="#333D58" p-id="7297"></path></svg>