<?xml version="1.0" encoding="UTF-8"?>
<svg width="22px" height="22px" viewBox="0 0 22 22" version="1.1" xmlns="http://www.w3.org/2000/svg" xmlns:xlink="http://www.w3.org/1999/xlink">
    <!-- Generator: Sketch 59 (86127) - https://sketch.com -->
    <title>Popup_success</title>
    <desc>Created with Sketch.</desc>
    <g id="规范" stroke="none" stroke-width="1" fill="none" fill-rule="evenodd">
        <g id="MLU新中台规范V1.0" transform="translate(-3686.000000, -1583.000000)" fill="#23C811">
            <g id="编组-46备份" transform="translate(3232.000000, 1374.000000)">
                <g id="编组-12备份" transform="translate(422.000000, 141.000000)">
                    <g id="弹窗-copy-2备份-2" transform="translate(0.000000, 36.000000)">
                        <g id="编组-13" transform="translate(32.000000, 32.000000)">
                            <path d="M11,0 C17.0757812,0 22,4.92421875 22,11 C22,17.0757812 17.0757812,22 11,22 C4.92421875,22 0,17.0757812 0,11 C0,4.92421875 4.92421875,0 11,0 Z M17.0490209,7.16145955 C16.6584966,6.77093525 16.0253316,6.77093525 15.6348074,7.16145955 L15.6348074,7.16145955 L10.3315065,12.4647604 C10.1362444,12.6600226 9.81966186,12.6600226 9.62439972,12.4647604 L9.62439972,12.4647604 L7.14952598,9.98988667 C6.75900169,9.59936238 6.12583671,9.59936238 5.73531242,9.98988667 C5.34478813,10.380411 5.34478813,11.0135759 5.73531242,11.4041002 L5.73531242,11.4041002 L9.27084632,14.9396341 C9.66137062,15.3301584 10.2945356,15.3301584 10.6850599,14.9396341 L10.6850599,14.9396341 L17.0490209,8.57567311 C17.4395452,8.18514882 17.4395452,7.55198384 17.0490209,7.16145955 Z" id="Popup_success"></path>
                        </g>
                    </g>
                </g>
            </g>
        </g>
    </g>
</svg>