<?xml version="1.0" encoding="UTF-8"?>
<svg width="22px" height="22px" viewBox="0 0 22 22" version="1.1" xmlns="http://www.w3.org/2000/svg" xmlns:xlink="http://www.w3.org/1999/xlink">
    <!-- Generator: Sketch 59 (86127) - https://sketch.com -->
    <title>Popup_tips</title>
    <desc>Created with Sketch.</desc>
    <g id="规范" stroke="none" stroke-width="1" fill="none" fill-rule="evenodd">
        <g id="MLU新中台规范V1.0" transform="translate(-3686.000000, -1779.000000)" fill="#1CA1FF">
            <g id="编组-46备份" transform="translate(3232.000000, 1374.000000)">
                <g id="编组-12备份" transform="translate(422.000000, 141.000000)">
                    <g id="弹窗-copy-2备份-4" transform="translate(0.000000, 232.000000)">
                        <g id="编组-13" transform="translate(32.000000, 32.000000)">
                            <path d="M11,0 C17.0757812,0 22,4.92421875 22,11 C22,17.0757812 17.0757812,22 11,22 C4.92421875,22 0,17.0757812 0,11 C0,4.92421875 4.92421875,0 11,0 Z M11,10 C10.1715729,10 9.5,10.6715729 9.5,11.5 L9.5,11.5 L9.5,16.5 C9.5,17.3284271 10.1715729,18 11,18 C11.8284271,18 12.5,17.3284271 12.5,16.5 L12.5,16.5 L12.5,11.5 C12.5,10.6715729 11.8284271,10 11,10 Z M11,5 C10.1715729,5 9.5,5.67157288 9.5,6.5 C9.5,7.32842712 10.1715729,8 11,8 C11.8284271,8 12.5,7.32842712 12.5,6.5 C12.5,5.67157288 11.8284271,5 11,5 Z" id="Popup_tips"></path>
                        </g>
                    </g>
                </g>
            </g>
        </g>
    </g>
</svg>