<?xml version="1.0" encoding="UTF-8"?>
<svg width="22px" height="22px" viewBox="0 0 22 22" version="1.1" xmlns="http://www.w3.org/2000/svg" xmlns:xlink="http://www.w3.org/1999/xlink">
    <!-- Generator: Sketch 59 (86127) - https://sketch.com -->
    <title>Popup_fail</title>
    <desc>Created with Sketch.</desc>
    <g id="规范" stroke="none" stroke-width="1" fill="none" fill-rule="evenodd">
        <g id="MLU新中台规范V1.0" transform="translate(-4094.000000, -1583.000000)" fill="#FA4150">
            <g id="编组-46备份" transform="translate(3232.000000, 1374.000000)">
                <g id="编组-12备份" transform="translate(422.000000, 141.000000)">
                    <g id="弹窗-copy-2备份-3" transform="translate(408.000000, 36.000000)">
                        <g id="编组-13" transform="translate(32.000000, 32.000000)">
                            <path d="M-1.70530257e-13,11 C-1.70530257e-13,4.92421875 4.92421875,0 11,0 C17.0757812,0 22,4.92421875 22,11 C22,17.0757812 17.0757812,22 11,22 C4.92421875,22 -1.70530257e-13,17.0757812 -1.70530257e-13,11 Z M12.3333333,11 L16.3333333,15 C16.7015232,15.3681898 16.7015232,15.9651435 16.3333333,16.3333333 C15.9651435,16.7015232 15.3681898,16.7015232 15,16.3333333 L11,12.3333333 L11,12.3333333 L7,16.3333333 C6.63181017,16.7015232 6.0348565,16.7015232 5.66666667,16.3333333 C5.29847683,15.9651435 5.29847683,15.3681898 5.66666667,15 L9.66666667,11 L9.66666667,11 L5.66666667,7 C5.29847683,6.63181017 5.29847683,6.0348565 5.66666667,5.66666667 C6.0348565,5.29847683 6.63181017,5.29847683 7,5.66666667 L11,9.66666667 L11,9.66666667 L15,5.66666667 C15.3681898,5.29847683 15.9651435,5.29847683 16.3333333,5.66666667 C16.7015232,6.0348565 16.7015232,6.63181017 16.3333333,7 L12.3333333,11 L12.3333333,11 Z" id="Popup_fail"></path>
                        </g>
                    </g>
                </g>
            </g>
        </g>
    </g>
</svg>