<?xml version="1.0" encoding="UTF-8"?>
<svg width="18px" height="14px" viewBox="0 0 18 14" version="1.1" xmlns="http://www.w3.org/2000/svg" xmlns:xlink="http://www.w3.org/1999/xlink">
    <!-- Generator: Sketch 59 (86127) - https://sketch.com -->
    <title>rank_btn备份 4</title>
    <desc>Created with Sketch.</desc>
    <defs>
        <filter x="-13.6%" y="-6.1%" width="127.3%" height="112.2%" filterUnits="objectBoundingBox" id="filter-1">
            <feOffset dx="0" dy="0" in="SourceAlpha" result="shadowOffsetOuter1"></feOffset>
            <feGaussianBlur stdDeviation="3" in="shadowOffsetOuter1" result="shadowBlurOuter1"></feGaussianBlur>
            <feComposite in="shadowBlurOuter1" in2="SourceAlpha" operator="out" result="shadowBlurOuter1"></feComposite>
            <feColorMatrix values="0 0 0 0 0.650864789   0 0 0 0 0.654796307   0 0 0 0 0.678385417  0 0 0 0.497077142 0" type="matrix" in="shadowBlurOuter1" result="shadowMatrixOuter1"></feColorMatrix>
            <feMerge>
                <feMergeNode in="shadowMatrixOuter1"></feMergeNode>
                <feMergeNode in="SourceGraphic"></feMergeNode>
            </feMerge>
        </filter>
    </defs>
    <g id="设计稿" stroke="none" stroke-width="1" fill="none" fill-rule="evenodd">
        <g id="配置中心-字段配置-模块字段配置-单据配置" transform="translate(-1311.000000, -272.000000)" fill="#A6A7AD">
            <g id="编组-12" transform="translate(188.000000, 76.000000)">
                <g id="编组-31" transform="translate(158.000000, 65.000000)">
                    <g id="编组-32" transform="translate(0.000000, 32.000000)">
                        <g id="编组-17">
                            <g id="编组-37" transform="translate(0.000000, 28.000000)">
                                <g id="间距-" transform="translate(0.000000, 36.000000)">
                                    <g id="间距-&lt;h0-&gt;">
                                        <g id="编组-8" filter="url(#filter-1)" transform="translate(908.000000, 0.000000)">
                                            <g id="间距-&lt;v0&gt;备份-4" transform="translate(44.000000, 0.000000)">
                                                <g id="边距-备份-36" transform="translate(0.000000, 28.000000)">
                                                    <g id="编组-11" transform="translate(13.000000, 7.000000)">
                                                        <path d="M16,11 C16.5522847,11 17,11.4477153 17,12 C17,12.5522847 16.5522847,13 16,13 L2,13 C1.44771525,13 1,12.5522847 1,12 C1,11.4477153 1.44771525,11 2,11 L16,11 Z M16,6 C16.5522847,6 17,6.44771525 17,7 C17,7.55228475 16.5522847,8 16,8 L2,8 C1.44771525,8 1,7.55228475 1,7 C1,6.44771525 1.44771525,6 2,6 L16,6 Z M16,1 C16.5522847,1 17,1.44771525 17,2 C17,2.55228475 16.5522847,3 16,3 L2,3 C1.44771525,3 1,2.55228475 1,2 C1,1.44771525 1.44771525,1 2,1 L16,1 Z" id="rank_btn"></path>
                                                    </g>
                                                </g>
                                            </g>
                                        </g>
                                    </g>
                                </g>
                            </g>
                        </g>
                    </g>
                </g>
            </g>
        </g>
    </g>
</svg>