<?xml version="1.0" standalone="no"?><!DOCTYPE svg PUBLIC "-//W3C//DTD SVG 1.1//EN" "http://www.w3.org/Graphics/SVG/1.1/DTD/svg11.dtd"><svg t="1594277843067" class="icon" viewBox="0 0 1024 1024" version="1.1" xmlns="http://www.w3.org/2000/svg" p-id="2736" xmlns:xlink="http://www.w3.org/1999/xlink" width="200" height="200"><defs><style type="text/css"></style></defs><path d="M918 702.8 918 702.8c45.6-98.8 52-206 26-303.6-30-112.4-104-212.8-211.6-273.6L780 23.2l-270.8 70.8 121.2 252.4 50-107.6c72.8 44.4 122.8 114.4 144 192.8 18.8 70.8 14.4 147.6-18.8 219.6-42 91.2-120.8 153.6-210.8 177.6-13.2 3.6-26.4 6-39.6 8l56 115.6c5.2-1.2 10.4-2.4 16-4C750.8 915.2 860 828.8 918 702.8L918 702.8M343.2 793.2c-74-44.4-124.8-114.8-146-194-18.8-70.8-14.4-147.6 18.8-219.6 42-91.2 120.8-153.6 210.8-177.6 14.8-4 30-6.8 45.6-8.8l-55.6-116c-7.2 1.6-14.8 3.2-22 5.2-124 33.2-233.6 119.6-291.2 245.6-45.6 98.8-52 206-26 303.2l0 0.4c30.4 113.2 105.2 214 213.6 274.8l-45.2 98 270.4-72-122-252L343.2 793.2 343.2 793.2M343.2 793.2 343.2 793.2z" p-id="2737"></path></svg>