<?xml version="1.0" encoding="UTF-8"?>
<svg width="14px" height="14px" viewBox="0 0 14 14" version="1.1" xmlns="http://www.w3.org/2000/svg" xmlns:xlink="http://www.w3.org/1999/xlink">
    <!-- Generator: Sketch 59 (86127) - https://sketch.com -->
    <title>table_search</title>
    <desc>Created with Sketch.</desc>
    <g id="规范" stroke="none" stroke-width="1" fill="none" fill-rule="evenodd">
        <g id="MLU新中台规范V1.0" transform="translate(-5584.000000, -2869.000000)" fill="#A6A7AD" fill-rule="nonzero">
            <g id="编组-32" transform="translate(4797.000000, 1698.000000)">
                <g id="编组-34备份-10" transform="translate(493.000000, 1128.000000)">
                    <g id="间距-&lt;h0-&gt;" transform="translate(0.000000, 36.000000)">
                        <g id="间距-&lt;v0&gt;备份-9" transform="translate(206.000000, 0.000000)">
                            <g id="边距-&lt;x-x-x-10&gt;">
                                <g id="table_search" transform="translate(88.000000, 7.000000)">
                                    <g id="形状">
                                        <path d="M2.51992245,2.26992245 C4.8630682,-0.0732233046 8.66205807,-0.0732233046 11.0052038,2.26992245 C13.2295537,4.49427235 13.3423267,8.03058794 11.3435228,10.3879693 L13.4800776,12.5229708 C13.6753397,12.7182329 13.6753397,13.0348154 13.4800776,13.2300776 C13.3065112,13.4036439 13.0370868,13.4229291 12.8422187,13.287933 L12.7729708,13.2300776 L10.6361723,11.0925833 L10.6361723,11.0925833 C8.28135414,13.0923511 4.74451331,12.9797947 2.51992245,10.7552038 C0.176776695,8.41205807 0.176776695,4.6130682 2.51992245,2.26992245 Z M3.22702923,2.97702923 C1.27440777,4.92965069 1.27440777,8.09547558 3.22702923,10.048097 C5.17965069,12.0007185 8.34547558,12.0007185 10.298097,10.048097 C12.2507185,8.09547558 12.2507185,4.92965069 10.298097,2.97702923 C8.34547558,1.02440777 5.17965069,1.02440777 3.22702923,2.97702923 Z"></path>
                                    </g>
                                </g>
                            </g>
                        </g>
                    </g>
                </g>
            </g>
        </g>
    </g>
</svg>