<?xml version="1.0" encoding="UTF-8"?>
<svg width="18px" height="18px" viewBox="0 0 18 18" version="1.1" xmlns="http://www.w3.org/2000/svg" xmlns:xlink="http://www.w3.org/1999/xlink">
    <!-- Generator: Sketch 59 (86127) - https://sketch.com -->
    <title>top_theme</title>
    <desc>Created with Sketch.</desc>
    <g id="规范" stroke="none" stroke-width="1" fill="none" fill-rule="evenodd">
        <g id="示例-单据" transform="translate(-1204.000000, -9.000000)">
            <g id="编组-7" transform="translate(180.000000, 0.000000)">
                <g id="编组-30" transform="translate(1024.000000, 9.000000)">
                    <rect id="矩形备份-5" x="0" y="0" width="18" height="18"></rect>
                    <path d="M3.64073348,10.547477 L0,6.03809114 L4.85841425,0.836711325 L7.39842165,0 L7.63957342,0.775988857 C7.96350191,1.81834033 8.39850921,2.23390173 9,2.23390173 C9.60149079,2.23390173 10.0364981,1.81834033 10.3604266,0.775988857 L10.6015783,0 L13.1415858,0.836711325 L18,6.03809114 L14.3592665,10.547477 L14.1683571,10.3588129 L14.6143897,17 L3.38561029,17 L3.8316429,10.3588129 L3.64073348,10.547477 Z M11.5240749,2.19694485 C10.9566664,3.21863725 10.106189,3.77936899 9,3.77936899 C7.82467418,3.77936899 6.93802277,3.14635542 6.37285989,2 L5.67390497,2.22024922 L2,5.98274903 L3.68147623,7.9749988 L5.64141873,6.12219346 L5,15.5 L12.9637766,15.5 L12.3585813,6.12219346 L14.3185238,7.9749988 L16,5.98274903 L12.326095,2.22024922 L11.6271401,2 L11.5240749,2.19694485 Z" id="路径" fill="#353D51" fill-rule="nonzero"></path>
                </g>
            </g>
        </g>
    </g>
</svg>