<?xml version="1.0" encoding="UTF-8"?>
<svg width="18px" height="18px" viewBox="0 0 18 18" version="1.1" xmlns="http://www.w3.org/2000/svg" xmlns:xlink="http://www.w3.org/1999/xlink">
    <!-- Generator: Sketch 59 (86127) - https://sketch.com -->
    <title>top_language</title>
    <desc>Created with Sketch.</desc>
    <g id="规范" stroke="none" stroke-width="1" fill="none" fill-rule="evenodd">
        <g id="示例-单据" transform="translate(-1174.000000, -9.000000)">
            <g id="编组-7" transform="translate(180.000000, 0.000000)">
                <g id="编组-30备份" transform="translate(994.000000, 9.000000)">
                    <rect id="矩形备份-5" x="0" y="0" width="18" height="18"></rect>
                    <path d="M1,13.6 L1,1 L16.6,1 L16.6,13.6 L13.1,13.6 L13.1,16.5944272 L7.11114562,13.6 L1,13.6 Z M15,2.6 L2.6,2.6 L2.6,12 L7.48885438,12 L11.5,14.0055728 L11.5,12 L15,12 L15,2.6 Z" id="矩形" fill="#353D51" fill-rule="nonzero"></path>
                    <path d="M7.91308562,3.8 L5.8,10.8 L7.253958,10.8 L7.76768982,8.95214564 L9.7644588,8.95214564 L10.2975767,10.8 L11.8,10.8 L9.71599354,3.8 L7.91308562,3.8 Z M8.41712439,6.33055917 C8.52374798,5.92093628 8.64975767,5.34746424 8.74668821,4.91053316 L8.77576737,4.91053316 L8.97327302,5.77106892 C9.02042003,5.96972692 9.06849758,6.16488947 9.11502423,6.3396619 L9.56090468,7.93263979 L7.97124394,7.93263979 L8.41712439,6.33055917 Z" id="A" fill="#353D51" fill-rule="nonzero"></path>
                </g>
            </g>
        </g>
    </g>
</svg>