<?xml version="1.0" encoding="UTF-8"?>
<svg width="18px" height="18px" viewBox="0 0 18 18" version="1.1" xmlns="http://www.w3.org/2000/svg" xmlns:xlink="http://www.w3.org/1999/xlink">
    <!-- Generator: Sketch 59 (86127) - https://sketch.com -->
    <title>top_full_scream</title>
    <desc>Created with Sketch.</desc>
    <g id="规范" stroke="none" stroke-width="1" fill="none" fill-rule="evenodd">
        <g id="示例-单据" transform="translate(-1144.000000, -9.000000)">
            <g id="编组-7" transform="translate(180.000000, 0.000000)">
                <g id="编组-30备份-2" transform="translate(964.000000, 9.000000)">
                    <rect id="矩形备份-5" x="0" y="0" width="18" height="18"></rect>
                    <polygon id="直线-2" fill="#353D51" fill-rule="nonzero" points="7.8 14.2 3.8 14.2 3.8 10.2 2.2 10.2 2.2 15.8 7.8 15.8"></polygon>
                    <polygon id="直线-2备份" fill="#353D51" fill-rule="nonzero" transform="translate(13.000000, 13.000000) scale(-1, 1) translate(-13.000000, -13.000000) " points="15.8 14.2 11.8 14.2 11.8 10.2 10.2 10.2 10.2 15.8 15.8 15.8"></polygon>
                    <polygon id="直线-2备份-3" fill="#353D51" fill-rule="nonzero" transform="translate(5.000000, 5.000000) scale(1, -1) translate(-5.000000, -5.000000) " points="7.8 6.2 3.8 6.2 3.8 2.2 2.2 2.2 2.2 7.8 7.8 7.8"></polygon>
                    <polygon id="直线-2备份-2" fill="#353D51" fill-rule="nonzero" transform="translate(13.000000, 5.000000) scale(-1, -1) translate(-13.000000, -5.000000) " points="15.8 6.2 11.8 6.2 11.8 2.2 10.2 2.2 10.2 7.8 15.8 7.8"></polygon>
                </g>
            </g>
        </g>
    </g>
</svg>