<?xml version="1.0" encoding="UTF-8"?>
<svg width="18px" height="18px" viewBox="0 0 18 18" version="1.1" xmlns="http://www.w3.org/2000/svg" xmlns:xlink="http://www.w3.org/1999/xlink">
    <!-- Generator: Sketch 59 (86127) - https://sketch.com -->
    <title>top_notice</title>
    <desc>Created with Sketch.</desc>
    <g id="规范" stroke="none" stroke-width="1" fill="none" fill-rule="evenodd">
        <g id="示例-单据" transform="translate(-1234.000000, -9.000000)">
            <g id="编组-7" transform="translate(180.000000, 0.000000)">
                <g id="编组-29" transform="translate(1054.000000, 9.000000)">
                    <rect id="矩形" x="0" y="0" width="18" height="18"></rect>
                    <path d="M9.10994071,0 C10.0541345,0 10.8455115,0.654286693 11.0554116,1.53420011 C13.3013638,2.33342264 14.9099407,4.47885969 14.9099407,7 L14.9099407,10.8701779 L16.2198814,14.8 L11.8939813,14.8007158 C11.743962,16.2057017 10.5547449,17.3 9.10994071,17.3 C7.66513653,17.3 6.47591942,16.2057017 6.32590011,14.8007158 L2,14.8 L3.30994071,10.8701779 L3.30994071,7 C3.30994071,4.47885969 4.9185176,2.33342264 7.16533004,1.53403019 C7.37436993,0.654286693 8.1657469,0 9.10994071,0 Z M10.2717746,14.8013987 L7.94810685,14.8013987 C8.0818055,15.318257 8.55129268,15.7 9.10994071,15.7 C9.66858874,15.7 10.1380759,15.318257 10.2717746,14.8013987 Z M9.10994071,2.8 C6.79034476,2.8 4.90994071,4.68040405 4.90994071,7 L4.90994071,11.1298221 L4.21988142,13.2 L14,13.2 L13.3099407,11.1298221 L13.3099407,7 C13.3099407,4.68040405 11.4295367,2.8 9.10994071,2.8 Z" id="形状结合" fill="#353D51" fill-rule="nonzero"></path>
                </g>
            </g>
        </g>
    </g>
</svg>